<?xml version="1.0" standalone="no"?>
<!DOCTYPE svg PUBLIC "-//W3C//DTD SVG 20010904//EN"
        "http://www.w3.org/TR/2001/REC-SVG-20010904/DTD/svg10.dtd">
<svg version="1.0" xmlns="http://www.w3.org/2000/svg"
     width="16.000000pt" height="16.000000pt" viewBox="0 0 16.000000 16.000000"
     preserveAspectRatio="xMidYMid meet">
    <metadata>
        Created by potrace 1.11, written by Peter Selinger 2001-2013
    </metadata>
    <g transform="translate(0.000000,16.000000) scale(0.002286,-0.002286)"
       fill="#000000" stroke="none">
        <path d="M1669 5936 c-75 -27 -120 -77 -142 -156 -13 -47 -15 -153 -13 -695 3
-725 4 -737 77 -820 31 -35 58 -51 104 -61 11 -3 219 -5 462 -5 400 -1 444 1
478 17 116 55 118 229 2 282 -39 18 -65 19 -355 18 -173 0 -316 2 -318 6 -3 4
-5 283 -6 620 -1 653 0 651 -50 719 -50 68 -163 104 -239 75z"/>
        <path d="M3779 5939 c-64 -17 -121 -73 -145 -142 -14 -42 -16 -120 -18 -595
-2 -491 -4 -552 -20 -594 -63 -170 -277 -185 -441 -32 -100 95 -131 107 -196
80 -54 -23 -99 -88 -99 -143 1 -37 31 -103 72 -154 37 -46 137 -121 192 -144
148 -62 348 -75 519 -34 235 56 380 226 413 479 9 73 8 1068 -1 1111 -27 122
-156 201 -276 168z"/>
        <path d="M4565 5937 c-48 -15 -92 -54 -122 -105 l-28 -47 -3 -645 c-2 -433 1
-666 8 -710 13 -80 50 -159 87 -186 59 -44 82 -46 547 -46 487 0 476 -1 529
61 64 76 38 195 -51 240 -34 16 -67 18 -355 17 -174 -1 -318 1 -318 4 -1 3 -2
286 -3 630 -2 613 -2 626 -23 665 -25 48 -66 91 -107 112 -35 18 -120 24 -161
10z"/>
        <path d="M3654 2961 c-56 -26 -85 -61 -89 -110 -11 -137 201 -198 304 -87 32
34 34 104 4 144 -46 62 -145 86 -219 53z"/>
        <path d="M4315 2960 c-39 -8 -65 -26 -89 -57 -17 -24 -18 -60 -18 -799 l-1
-774 27 -38 c30 -44 72 -61 132 -55 48 5 79 24 104 66 19 31 20 56 20 790 0
794 0 800 -43 835 -26 22 -99 39 -132 32z"/>
        <path d="M2915 2869 c-36 -10 -73 -42 -85 -74 -5 -13 -12 -72 -16 -132 -4 -59
-8 -115 -10 -123 -1 -8 -3 -35 -3 -60 l-1 -45 -78 -1 c-88 -1 -115 -12 -138
-56 -14 -26 -14 -38 -4 -70 14 -50 53 -68 145 -68 l65 0 1 -332 c1 -183 2
-344 3 -358 10 -99 38 -180 82 -238 57 -74 192 -109 348 -91 128 16 187 64
172 142 -11 60 -35 72 -145 72 -177 1 -174 -8 -179 455 l-4 356 117 1 c127 1
142 7 165 63 16 40 -1 91 -40 113 -23 14 -53 18 -135 18 l-105 0 0 185 0 186
-29 29 c-16 16 -38 29 -48 30 -10 0 -25 2 -33 3 -8 2 -29 -1 -45 -5z"/>
        <path d="M5130 2445 c-182 -33 -285 -101 -336 -221 -24 -56 -21 -158 6 -223
47 -109 138 -158 414 -226 103 -26 204 -54 224 -62 75 -31 111 -74 112 -131 1
-114 -112 -182 -289 -176 -68 3 -111 13 -234 54 -106 36 -159 49 -179 45 -32
-8 -68 -48 -68 -79 0 -60 95 -133 220 -170 54 -16 66 -19 165 -34 75 -12 216
-5 302 13 141 31 272 125 324 231 35 71 39 183 9 247 -56 118 -153 170 -460
246 -239 60 -290 91 -290 176 0 97 83 136 280 131 108 -3 135 -7 195 -30 91
-36 108 -40 148 -32 90 17 62 133 -45 187 -109 55 -349 82 -498 54z"/>
        <path d="M1351 2429 c-46 -10 -92 -58 -100 -105 -9 -52 -6 -672 3 -749 9 -70
61 -185 106 -232 73 -77 165 -117 284 -126 151 -11 311 65 407 192 l25 34 2
-57 c1 -73 28 -118 81 -140 77 -30 150 -3 185 69 18 36 19 66 19 531 0 487 0
492 -22 527 -50 82 -192 82 -242 0 -21 -33 -22 -46 -24 -386 -2 -408 -4 -420
-95 -505 -60 -57 -97 -72 -195 -77 -101 -6 -184 43 -228 135 -21 43 -22 60
-25 420 -3 359 -4 376 -24 412 -27 48 -91 71 -157 57z"/>
        <path d="M3685 2429 c-37 -10 -73 -42 -86 -76 -5 -15 -9 -229 -9 -522 1 -472
2 -498 20 -528 25 -42 58 -63 107 -67 54 -6 113 22 137 65 19 32 20 57 19 534
0 449 -1 503 -17 532 -27 52 -105 81 -171 62z"/>
    </g>
</svg>
