<?xml version="1.0" encoding="utf-8"?>
<!-- Generator: Adobe Illustrator 20.0.0, SVG Export Plug-In . SVG Version: 6.00 Build 0)  -->
<svg version="1.1" id="Ebene_1" xmlns="http://www.w3.org/2000/svg" xmlns:xlink="http://www.w3.org/1999/xlink" x="0px" y="0px"
	 viewBox="0 0 240.9 240.9" style="enable-background:new 0 0 240.9 240.9;" xml:space="preserve">
<style type="text/css">
	.st0{fill:#45527F;}
</style>
<g>
	<path class="st0" d="M88.3,85.4c0.7,0,1.5,0.1,2.1,0.4c0.7,0.3,1.3,0.7,1.8,1.2s0.9,1.1,1.2,1.8c0.3,0.7,0.4,1.4,0.4,2.1
		s-0.1,1.5-0.4,2.1c-0.3,0.7-0.7,1.3-1.2,1.8s-1.1,0.9-1.8,1.2c-0.7,0.3-1.4,0.4-2.1,0.4H59.8c-1.5,0-2.7-0.3-3.7-1
		c-1-0.6-1.8-1.5-2.4-2.6c-0.6-1.1-1-2.3-1.2-3.6c-0.2-1.4-0.4-2.7-0.4-4.2V44.3c0-1.1,0.2-2.2,0.6-3.2c0.4-1,0.9-1.8,1.6-2.6
		c0.7-0.7,1.5-1.3,2.4-1.7c0.9-0.4,1.9-0.6,3-0.6s2.1,0.2,3,0.6c0.9,0.4,1.7,1,2.4,1.7c0.7,0.7,1.3,1.6,1.7,2.6c0.4,1,0.6,2,0.6,3.2
		l0,41.2H88.3z"/>
	<path class="st0" d="M124.5,44.3c0-1.1,0.2-2.2,0.6-3.2c0.4-1,0.9-1.8,1.6-2.6c0.7-0.7,1.5-1.3,2.4-1.7c0.9-0.4,1.9-0.6,3-0.6
		c1.1,0,2.1,0.2,3,0.6c0.9,0.4,1.7,1,2.4,1.7c0.7,0.7,1.3,1.6,1.7,2.6c0.4,1,0.6,2,0.6,3.2l0,32.5c0,3.5-0.5,6.5-1.5,9.2
		c-1,2.6-2.4,4.8-4.3,6.6c-1.9,1.8-4.1,3.1-6.8,4c-2.7,0.9-5.8,1.3-9.2,1.3c-3.1,0-6-0.5-8.8-1.4c-2.8-0.9-5.2-2.4-7.3-4.5
		c-1-1-1.8-2-2.5-3.2c-0.7-1.2-1-2.3-1-3.3c0-0.7,0.2-1.3,0.5-2c0.3-0.6,0.7-1.2,1.2-1.7c0.5-0.5,1.1-0.9,1.7-1.2
		c0.6-0.3,1.3-0.4,2-0.4c0.6,0,1.1,0.2,1.6,0.5c0.5,0.3,1,0.7,1.5,1.1c0.5,0.4,1,0.9,1.4,1.4c0.5,0.5,0.9,0.9,1.4,1.3
		c1,0.8,2,1.4,3.2,1.9c1.1,0.5,2.3,0.7,3.7,0.7c2.7,0,4.7-0.8,6-2.5s1.9-4.3,1.9-7.8V44.3z"/>
	<path class="st0" d="M187.9,85.4c0.7,0,1.5,0.1,2.1,0.4c0.7,0.3,1.3,0.7,1.8,1.2s0.9,1.1,1.2,1.8c0.3,0.7,0.4,1.4,0.4,2.1
		s-0.1,1.5-0.4,2.1c-0.3,0.7-0.7,1.3-1.2,1.8s-1.1,0.9-1.8,1.2c-0.7,0.3-1.4,0.4-2.1,0.4h-28.4c-1.5,0-2.7-0.3-3.7-1
		c-1-0.6-1.8-1.5-2.4-2.6c-0.6-1.1-1-2.3-1.2-3.6c-0.2-1.4-0.4-2.7-0.4-4.2V44.3c0-1.1,0.2-2.2,0.6-3.2c0.4-1,0.9-1.8,1.6-2.6
		c0.7-0.7,1.5-1.3,2.4-1.7s1.9-0.6,3-0.6c1.1,0,2.1,0.2,3,0.6c0.9,0.4,1.7,1,2.4,1.7c0.7,0.7,1.3,1.6,1.7,2.6c0.4,1,0.6,2,0.6,3.2
		l0,41.2H187.9z"/>
	<path class="st0" d="M81.2,193.8c0,0.8-0.1,1.5-0.4,2c-0.3,0.6-0.6,1.1-1.1,1.5c-0.5,0.4-1,0.7-1.6,0.9c-0.6,0.2-1.2,0.3-1.8,0.3
		c-0.6,0-1.2-0.1-1.7-0.3s-1.1-0.5-1.5-0.8c-0.5-0.4-0.8-0.8-1.1-1.4c-0.3-0.5-0.4-1.2-0.5-1.9V191c-0.6,1-1.3,2.1-2.3,3.1
		c-1,1.1-2.1,1.9-3.3,2.7c-1.2,0.7-2.6,1.3-4,1.7c-1.4,0.4-2.9,0.6-4.3,0.6c-1.9,0-3.8-0.3-5.6-0.9c-1.8-0.6-3.3-1.6-4.7-2.9
		c-1.3-1.3-2.4-2.9-3.2-4.9c-0.8-2-1.2-4.3-1.2-6.9v-21.7c0-0.8,0.1-1.5,0.4-2c0.3-0.6,0.6-1.1,1.1-1.5c0.5-0.4,1-0.7,1.6-0.9
		c0.6-0.2,1.2-0.3,1.8-0.3c0.6,0,1.2,0.1,1.8,0.3c0.6,0.2,1.1,0.5,1.6,0.9c0.5,0.4,0.8,0.9,1.1,1.5c0.3,0.6,0.4,1.3,0.4,2v21.8
		c0,1.5,0.2,2.8,0.7,3.9s1,2.1,1.8,2.9s1.6,1.3,2.6,1.7c1,0.4,2,0.6,3.1,0.6c1.4,0,2.7-0.2,3.9-0.6c1.2-0.4,2.3-1.1,3.3-2
		c0.9-0.9,1.7-1.9,2.3-3c0.6-1.1,0.9-2.6,1.1-4.4v-21c0-0.8,0.1-1.5,0.4-2c0.3-0.6,0.6-1.1,1.1-1.5s1-0.7,1.6-0.9
		c0.6-0.2,1.2-0.3,1.8-0.3s1.2,0.1,1.8,0.3c0.6,0.2,1.1,0.5,1.6,0.9s0.8,0.9,1.1,1.5s0.4,1.3,0.4,2V193.8z"/>
	<path class="st0" d="M96.3,156.9l0.8-11.2c0.1-0.6,0.2-1.2,0.5-1.6c0.3-0.5,0.7-0.9,1.1-1.2c0.4-0.3,0.9-0.6,1.5-0.7
		c0.5-0.2,1.1-0.3,1.6-0.3c1,0,1.9,0.3,2.7,0.9c0.8,0.6,1.2,1.6,1.2,2.9v11.2h6.4c1.1,0,2,0.4,2.6,1.1s0.9,1.5,0.9,2.3
		c0,0.8-0.3,1.6-0.9,2.3c-0.6,0.7-1.4,1-2.6,1h-6.4v17.3c0,2,0,3.6,0.1,5c0.1,1.4,0.2,2.5,0.5,3.3c0.3,0.8,0.7,1.5,1.4,1.8
		c0.6,0.4,1.5,0.6,2.6,0.6c0.3,0,0.6,0,0.9,0c0.3,0,0.7-0.1,1-0.1c0.3,0,0.6-0.1,0.9-0.1c0.3,0,0.5,0,0.7,0c1.1,0,1.9,0.3,2.4,1
		s0.9,1.5,0.9,2.3c0,0.9-0.3,1.6-0.8,2.2c-0.5,0.6-1.2,1-2.1,1.3c-0.9,0.3-1.8,0.6-2.9,0.7c-1.1,0.1-2.2,0.2-3.3,0.2
		c-1.9,0-3.7-0.3-5.1-0.7s-2.8-1.3-3.8-2.5c-1-1.1-1.8-2.7-2.3-4.5c-0.5-1.9-0.8-4.2-0.8-6.9v-20.7h-4c-1.2,0-2-0.3-2.6-1
		c-0.6-0.7-0.9-1.4-0.9-2.3c0-0.8,0.3-1.6,0.9-2.3s1.5-1.1,2.6-1.1H96.3z"/>
	<path class="st0" d="M134.1,143.2c0,1.4-0.5,2.5-1.6,3.3c-1.1,0.9-2.5,1.3-4.2,1.3c-0.8,0-1.6-0.1-2.3-0.4c-0.7-0.2-1.3-0.6-1.8-1
		c-0.5-0.4-0.9-0.9-1.2-1.5c-0.3-0.6-0.4-1.2-0.4-1.8s0.1-1.3,0.4-1.8c0.3-0.6,0.7-1.1,1.2-1.5c0.5-0.4,1.1-0.7,1.8-1
		c0.7-0.2,1.5-0.4,2.3-0.4s1.6,0.1,2.3,0.4c0.7,0.2,1.3,0.6,1.8,1c0.5,0.4,0.9,0.9,1.2,1.5C134,141.9,134.1,142.5,134.1,143.2z
		 M123.5,161.8c0-0.8,0.1-1.5,0.4-2.1c0.3-0.6,0.6-1.1,1.1-1.5c0.5-0.4,1-0.7,1.6-0.9c0.6-0.2,1.2-0.3,1.8-0.3
		c0.6,0,1.2,0.1,1.8,0.3c0.6,0.2,1.1,0.5,1.6,0.9c0.5,0.4,0.8,0.9,1.1,1.5c0.3,0.6,0.4,1.3,0.4,2.1v31.9c0,0.8-0.1,1.5-0.4,2.1
		c-0.3,0.6-0.7,1.1-1.1,1.5c-0.5,0.4-1,0.7-1.6,0.9c-0.6,0.2-1.2,0.3-1.8,0.3c-0.6,0-1.2-0.1-1.8-0.3c-0.6-0.2-1.1-0.5-1.5-0.9
		c-0.4-0.4-0.8-0.9-1.1-1.5c-0.3-0.6-0.4-1.3-0.4-2.1V161.8z"/>
	<path class="st0" d="M144.7,143.7c0-0.8,0.1-1.5,0.4-2.1c0.3-0.6,0.6-1.1,1.1-1.5c0.5-0.4,1-0.7,1.6-0.9c0.6-0.2,1.2-0.3,1.8-0.3
		c0.6,0,1.2,0.1,1.8,0.3c0.6,0.2,1.1,0.5,1.6,0.9c0.5,0.4,0.8,0.9,1.1,1.5c0.3,0.6,0.4,1.3,0.4,2.1v50c0,0.8-0.1,1.5-0.4,2.1
		c-0.3,0.6-0.7,1.1-1.1,1.5c-0.5,0.4-1,0.7-1.6,0.9c-0.6,0.2-1.2,0.3-1.8,0.3c-0.6,0-1.2-0.1-1.8-0.3c-0.6-0.2-1.1-0.5-1.5-0.9
		c-0.4-0.4-0.8-0.9-1.1-1.5c-0.3-0.6-0.4-1.3-0.4-2.1V143.7z"/>
	<path class="st0" d="M173.7,167.6c0,0.9,0.3,1.6,0.7,2.2c0.5,0.6,1.2,1.1,2,1.5c0.9,0.4,1.9,0.8,3,1.1c1.2,0.3,2.4,0.6,3.8,0.9
		c1.4,0.3,2.8,0.7,4.3,1.1s3,0.9,4.4,1.4c2.6,0.8,4.7,2,6.2,3.7s2.3,3.7,2.3,6.2c0,2-0.5,3.9-1.5,5.6c-1,1.7-2.3,3.1-4,4.3
		c-1.7,1.1-3.7,2-5.9,2.6c-2.3,0.6-4.7,0.9-7.2,0.9c-2.3,0-4.5-0.2-6.6-0.6c-2.1-0.4-3.9-0.9-5.5-1.6c-1.6-0.7-2.8-1.4-3.8-2.3
		c-0.9-0.9-1.4-1.8-1.4-2.8c0-0.8,0.3-1.4,0.9-2c0.6-0.5,1.4-0.8,2.3-0.8c0.6,0,1.3,0.2,2.2,0.5s2,0.8,3.3,1.3s2.7,0.9,4.2,1.3
		c1.5,0.4,3.2,0.5,5,0.5c1.1,0,2.2-0.1,3.2-0.4c1.1-0.2,2-0.6,2.8-1.1c0.8-0.5,1.5-1.2,2-2c0.5-0.8,0.7-1.7,0.7-2.8
		c0-1-0.4-1.9-1.3-2.8c-0.9-0.9-2.1-1.5-3.7-2c-1.9-0.5-3.7-1-5.5-1.4c-1.8-0.4-3.5-0.8-5.1-1.2c-1.6-0.4-3.1-0.9-4.5-1.5
		c-1.4-0.6-2.5-1.3-3.5-2.1c-1-0.8-1.8-1.9-2.3-3.1c-0.6-1.2-0.9-2.7-0.9-4.4c0-1.7,0.4-3.3,1.3-4.8c0.9-1.5,2.1-2.8,3.7-3.8
		c1.6-1,3.4-1.7,5.5-2.2c2.1-0.5,4.4-0.7,6.9-0.7c2.6,0,4.9,0.2,6.8,0.6c1.9,0.4,3.5,0.9,4.8,1.5c1.3,0.6,2.2,1.3,2.9,2.1
		c0.6,0.8,1,1.6,1,2.4c0,0.8-0.3,1.4-0.9,1.8c-0.6,0.4-1.4,0.6-2.2,0.6c-0.3,0-0.6,0-0.9-0.1c-0.3-0.1-0.6-0.2-0.9-0.4
		c-1.1-0.6-2.5-1.1-4.1-1.5c-1.6-0.4-3.6-0.6-6-0.6c-1.3,0-2.5,0.1-3.6,0.3s-2,0.5-2.8,0.9c-0.8,0.4-1.4,1-1.8,1.7
		C173.9,166.5,173.7,167.1,173.7,167.6z"/>
</g>
</svg>
