<svg id="Ebene_1" data-name="Ebene 1" xmlns="http://www.w3.org/2000/svg" viewBox="0 0 640 480">
    <defs>
        <style>
            .cls-1{fill:none;stroke:#6c707f;stroke-miterlimit:10;}.cls-2{fill:#45527f;}.cls-3,.cls-9{font-size:22px;font-family:Nunito,
            Nunito;}.cls-4{letter-spacing:-0.01em;}.cls-5{letter-spacing:1.34em;}.cls-6{letter-spacing:-0.01em;}.cls-7{letter-spacing:-0.01em;}.cls-8{letter-spacing:-0.01em;}.cls-9{fill:#6c707f;}.cls-10{letter-spacing:-0.01em;}
        </style>
    </defs>
    <title>Zeichenfläche 1</title>
    <line class="cls-1" x1="170" y1="110" x2="130" y2="150"/>
    <line class="cls-1" x1="170" y1="110" x2="210" y2="150"/>
    <line class="cls-1" x1="130" y1="150" x2="110" y2="190"/>
    <line class="cls-1" x1="150" y1="190" x2="130" y2="150"/>
    <line class="cls-1" x1="190" y1="190" x2="210" y2="150"/>
    <line class="cls-1" x1="230" y1="190" x2="210" y2="150"/>
    <circle class="cls-2" cx="170" cy="110" r="10"/>
    <circle class="cls-2" cx="130" cy="150" r="10"/>
    <circle class="cls-2" cx="110" cy="190" r="10"/>
    <circle class="cls-2" cx="150" cy="190" r="10"/>
    <circle class="cls-2" cx="190" cy="190" r="10"/>
    <circle class="cls-2" cx="230" cy="190" r="10"/>
    <circle class="cls-2" cx="210" cy="150" r="10"/>
    <text class="cls-3" transform="translate(270 115.44)">Consol
        <tspan class="cls-4" x="70.77" y="0">e</tspan>
        <tspan x="83.02" y="0">.printlnIndented(</tspan>
        <tspan class="cls-5" x="0" y="22"></tspan>
        <tspan x="36" y="22">„</tspan>
        <tspan class="cls-6" x="48.47" y="22">R</tspan>
        <tspan x="63.44" y="22">oot“</tspan>
        <tspan x="0" y="44">)</tspan>
        <tspan class="cls-7" x="6.84" y="44">;</tspan>
        <tspan x="0" y="66">Consol</tspan>
        <tspan class="cls-4" x="70.77" y="66">e</tspan>
        <tspan class="cls-7" x="83.02" y="66">.</tspan>
        <tspan x="0" y="88">inc</tspan>
        <tspan class="cls-8" x="29.06" y="88">r</tspan>
        <tspan x="37.14" y="88">easeIndention</tspan>
        <tspan class="cls-6" x="182.05" y="88">Lev</tspan>
        <tspan x="217.63" y="88">el()</tspan>
        <tspan class="cls-7" x="249.24" y="88">;</tspan>
        <tspan x="0" y="110">Consol</tspan>
        <tspan class="cls-4" x="70.77" y="110">e</tspan>
        <tspan x="83.02" y="110">.printlnIndeted</tspan>
        <tspan x="0" y="132">(“l“)</tspan>
        <tspan class="cls-7" x="44.12" y="132">;</tspan>
        <tspan x="0" y="154">Consol</tspan>
        <tspan class="cls-4" x="70.77" y="154">e</tspan>
        <tspan class="cls-7" x="83.02" y="154">.</tspan>
        <tspan x="0" y="176">inc</tspan>
        <tspan class="cls-8" x="29.06" y="176">r</tspan>
        <tspan x="37.14" y="176">easeIndention</tspan>
        <tspan class="cls-6" x="182.05" y="176">Lev</tspan>
        <tspan x="217.63" y="176">el()</tspan>
        <tspan x="0" y="198">Consol</tspan>
        <tspan class="cls-4" x="70.77" y="198">e</tspan>
        <tspan x="83.02" y="198">.printlnIndeted</tspan>
        <tspan x="0" y="220">(“ll“)</tspan>
        <tspan class="cls-7" x="49.61" y="220">;</tspan>
        <tspan x="0" y="242">Consol</tspan>
        <tspan class="cls-4" x="70.77" y="242">e</tspan>
        <tspan x="83.02" y="242">.printlnIndeted</tspan>
        <tspan x="0" y="264">(“lr“)</tspan>
        <tspan class="cls-7" x="52.31" y="264">;</tspan>
    </text>
    <text class="cls-9" transform="translate(100 235.44)">
        <tspan class="cls-8">r</tspan>
        <tspan x="8.08" y="0">oot</tspan>
        <tspan class="cls-5" x="0" y="20.5"></tspan>
        <tspan x="36" y="20.5">l</tspan>
        <tspan class="cls-5" x="0" y="41" xml:space="preserve">		</tspan>
        <tspan x="72" y="41">ll</tspan>
        <tspan class="cls-5" x="0" y="61.5" xml:space="preserve">		</tspan>
        <tspan x="72" y="61.5">lr</tspan>
        <tspan class="cls-5" x="0" y="82"></tspan>
        <tspan x="36" y="82">r</tspan>
        <tspan class="cls-5" x="0" y="102.5" xml:space="preserve">		</tspan>
        <tspan x="72" y="102.5">rl</tspan>
        <tspan class="cls-5" x="0" y="123" xml:space="preserve">		</tspan>
        <tspan class="cls-10" x="72" y="123">r</tspan>
        <tspan x="80.05" y="123">r</tspan>
        <tspan x="0" y="143.5">(End t</tspan>
        <tspan class="cls-8" x="60.8" y="143.5">r</tspan>
        <tspan x="68.88" y="143.5">ee)</tspan>
    </text>
</svg>